<?xml version="1.0" encoding="utf-8"?>
<!-- Generator: Adobe Illustrator 22.1.0, SVG Export Plug-In . SVG Version: 6.00 Build 0)  -->
<svg version="1.1" id="Layer_1" xmlns="http://www.w3.org/2000/svg" xmlns:xlink="http://www.w3.org/1999/xlink" x="0px" y="0px"
	 viewBox="0 0 60 30" style="enable-background:new 0 0 60 30;" xml:space="preserve">
<style type="text/css">
	.st0{fill:#FFFFFF;}
	.st1{fill:#B82626;}
</style>
<g>
	<path class="st0" d="M21.5,11.1h1.1v0.1h-0.4l0.5,2.2l0.5-1.8l-0.1-0.5h-0.2v-0.1h0.9v0.1h-0.3l0.5,2.2l0.6-2.2h-0.4v-0.1h0.7v0.1
		h-0.2l-0.8,3.2l-0.6-2.6l-0.7,2.6l-0.7-3.2L21.5,11.1L21.5,11.1z"/>
	<path class="st0" d="M25.7,12.4c0,0,0,0.1,0,0.1s0,0.1,0,0.2c0,0.2,0,0.3,0,0.5s0,0.3,0.1,0.5c0,0.1,0.1,0.3,0.2,0.3
		s0.2,0.1,0.3,0.1c0.1,0,0.2,0,0.3-0.1c0.1-0.1,0.2-0.1,0.2-0.2s0.1-0.2,0.1-0.3s0-0.2,0.1-0.2l0.1,0c0,0.1,0,0.1-0.1,0.2
		s-0.1,0.2-0.1,0.3c-0.1,0.1-0.1,0.2-0.2,0.3s-0.2,0.1-0.4,0.1s-0.3,0-0.4-0.1c-0.1-0.1-0.2-0.2-0.3-0.3s-0.2-0.3-0.2-0.5
		c-0.1-0.2-0.1-0.4-0.1-0.7c0-0.2,0-0.4,0.1-0.6c0.1-0.2,0.1-0.4,0.2-0.5s0.2-0.3,0.3-0.4C26,11,26.1,11,26.3,11
		c0.1,0,0.2,0,0.3,0.1c0.1,0,0.2,0.1,0.3,0.2s0.2,0.2,0.2,0.4s0.1,0.4,0.1,0.7H25.7z M26.6,12.3c0-0.1,0-0.1,0-0.2
		c0-0.1,0-0.1,0-0.2c0-0.2,0-0.3,0-0.4c0-0.1,0-0.2-0.1-0.2c0-0.1-0.1-0.1-0.1-0.1c0,0-0.1,0-0.2,0c-0.1,0-0.2,0-0.3,0.1
		c-0.1,0.1-0.1,0.2-0.2,0.3s-0.1,0.2-0.1,0.4c0,0.1,0,0.3,0,0.4H26.6z"/>
	<path class="st0" d="M29.1,14.1h0.3v-3h-0.3V11H30V11h-0.3v3h0.5c0.2,0,0.3-0.1,0.4-0.2c0.1-0.2,0.2-0.4,0.2-0.7h0v1L29.1,14.1
		L29.1,14.1z"/>
	<path class="st0" d="M31.3,12.6c0-0.2,0-0.4,0.1-0.6c0.1-0.2,0.1-0.4,0.3-0.5c0.1-0.1,0.2-0.3,0.3-0.3c0.1-0.1,0.3-0.1,0.4-0.1
		c0.1,0,0.2,0,0.4,0.1c0.1,0.1,0.2,0.2,0.3,0.3c0.1,0.1,0.2,0.3,0.3,0.5c0.1,0.2,0.1,0.4,0.1,0.6c0,0.2,0,0.4-0.1,0.6
		c-0.1,0.2-0.1,0.4-0.2,0.5c-0.1,0.1-0.2,0.3-0.3,0.3s-0.3,0.1-0.4,0.1s-0.3,0-0.4-0.1c-0.1-0.1-0.2-0.2-0.3-0.3s-0.2-0.3-0.2-0.5
		C31.3,13.1,31.3,12.8,31.3,12.6z M31.7,12.6c0,0.3,0,0.6,0,0.8c0,0.2,0.1,0.4,0.1,0.5c0.1,0.1,0.1,0.2,0.2,0.2s0.2,0,0.2,0
		s0.2,0,0.2,0s0.1-0.1,0.2-0.2c0.1-0.1,0.1-0.3,0.1-0.5c0-0.2,0-0.5,0-0.8c0-0.3,0-0.5,0-0.7s-0.1-0.3-0.1-0.5
		c0-0.1-0.1-0.2-0.2-0.3s-0.2-0.1-0.3-0.1s-0.2,0-0.3,0.1c-0.1,0.1-0.1,0.1-0.2,0.3c-0.1,0.1-0.1,0.3-0.1,0.5S31.7,12.3,31.7,12.6z"
		/>
	<path class="st0" d="M33.7,11.1h1.1v0.1h-0.4l0.6,2.2l0.6-2.2h-0.4v-0.1h0.7v0.1h-0.2l-0.9,3.2L34,11.2L33.7,11.1L33.7,11.1z"/>
	<path class="st0" d="M36.8,12.4c0,0,0,0.1,0,0.1s0,0.1,0,0.2c0,0.2,0,0.3,0,0.5c0,0.2,0,0.3,0.1,0.5s0.1,0.3,0.2,0.3
		c0.1,0.1,0.2,0.1,0.3,0.1s0.2,0,0.3-0.1c0.1-0.1,0.2-0.1,0.2-0.2c0-0.1,0.1-0.2,0.1-0.3s0-0.2,0.1-0.2l0.1,0c0,0.1,0,0.1-0.1,0.2
		c0,0.1-0.1,0.2-0.1,0.3c-0.1,0.1-0.1,0.2-0.2,0.3s-0.2,0.1-0.4,0.1s-0.3,0-0.4-0.1c-0.1-0.1-0.2-0.2-0.3-0.3
		c-0.1-0.1-0.2-0.3-0.2-0.5c-0.1-0.2-0.1-0.4-0.1-0.7c0-0.2,0-0.4,0.1-0.6c0.1-0.2,0.1-0.4,0.2-0.5s0.2-0.3,0.3-0.4
		c0.1-0.1,0.3-0.1,0.4-0.1c0.1,0,0.2,0,0.3,0.1c0.1,0,0.2,0.1,0.3,0.2c0.1,0.1,0.2,0.2,0.2,0.4c0.1,0.2,0.1,0.4,0.1,0.7H36.8z
		 M37.7,12.3c0-0.1,0-0.1,0-0.2c0-0.1,0-0.1,0-0.2c0-0.2,0-0.3,0-0.4s0-0.2-0.1-0.2c0-0.1-0.1-0.1-0.1-0.1c0,0-0.1,0-0.2,0
		c-0.1,0-0.2,0-0.3,0.1c-0.1,0.1-0.1,0.2-0.2,0.3c0,0.1-0.1,0.2-0.1,0.4s0,0.3,0,0.4H37.7z"/>
</g>
<g>
	<path class="st0" d="M4.8,22.1c0,0.7-0.4,1.3-0.8,1.3c-0.5,0-0.8-0.6-0.8-1.3c0-0.7,0.4-1.3,0.8-1.3C4.5,20.9,4.8,21.4,4.8,22.1z
		 M6.8,15.1v6.8c0,0.8-0.4,1.5-1,1.5c-0.1,0-0.2,0-0.3-0.1v-8.3H6.8z"/>
	<path class="st0" d="M10.2,19.6H9.3v2.3c0,0.8-0.4,1.5-1,1.5c-0.1,0-0.2,0-0.3-0.1v-8.3h1.3v3.8h0.9V19.6z M11.1,15.1v2l-1.6-2
		H11.1z M9.5,23.4l1.6-2v2H9.5z"/>
	<path class="st0" d="M12,15.1h1.6L12,17.2V15.1z M13.9,23.4v-8.3h1.3v8.3H13.9z M17.2,15.1v2.1l-1.6-2.1H17.2z"/>
	<path class="st0" d="M22,21.2c0,0.7-0.2,1.3-0.5,1.7c-0.3,0.4-0.6,0.6-1,0.6c0.3,0,0.5-0.4,0.5-0.8c0-0.2-0.1-0.4-0.2-0.6
		c0,0-2.3-3-2.3-3.1c-0.3-0.4-0.5-1-0.5-1.6c0-0.7,0.2-1.3,0.5-1.7c0.3-0.4,0.6-0.6,1-0.6c-0.3,0-0.5,0.4-0.5,0.8
		c0,0.2,0.1,0.4,0.2,0.6c0,0,2.3,3,2.3,3.1C21.8,20,22,20.5,22,21.2z M18.1,22.2c0-0.7,0.4-1.3,0.8-1.3c0.5,0,0.8,0.6,0.8,1.3
		s-0.4,1.3-0.8,1.3C18.5,23.4,18.1,22.9,18.1,22.2z M21.7,17.2l-1.6-2.1h1.6V17.2z"/>
	<path class="st0" d="M24.4,22.1c0,0.7-0.4,1.3-0.8,1.3c-0.5,0-0.8-0.6-0.8-1.3c0-0.7,0.4-1.3,0.8-1.3C24,20.9,24.4,21.4,24.4,22.1z
		 M27.6,23.4h-1.5l-2-6.1l0.7-2.3L27.6,23.4z"/>
	<path class="st0" d="M28.4,15.1h1.3v6.8c0,0.8-0.4,1.5-1,1.5c-0.1,0-0.2,0-0.3-0.1V15.1z M32.8,19.3c0,2.5-1.4,4.2-2.4,4.2
		c0.3-0.3,0.9-2.1,0.9-4.2s-0.5-3.8-0.9-4.2C31.4,15.1,32.8,16.7,32.8,19.3z"/>
	<path class="st0" d="M35.2,22.1c0,0.7-0.4,1.3-0.8,1.3s-0.8-0.6-0.8-1.3c0-0.7,0.4-1.3,0.8-1.3S35.2,21.4,35.2,22.1z M38.5,23.4H37
		l-2-6.1l0.7-2.3L38.5,23.4z"/>
</g>
<g>
	<path class="st1" d="M40.1,23.3h0.8v-7.8h-0.8v-0.2h1.3c0.1,0,0.1,0,0.2,0c0.1,0,0.2,0,0.2,0c0.1,0,0.2,0,0.2,0s0.1,0,0.2,0
		c0.4,0,0.7,0.1,0.9,0.2s0.4,0.3,0.5,0.5c0.1,0.2,0.2,0.4,0.3,0.6s0.1,0.4,0.1,0.6c0,0.3,0,0.5-0.1,0.7c-0.1,0.2-0.2,0.4-0.3,0.6
		s-0.3,0.3-0.4,0.4C43.1,18.9,43,19,42.8,19v0c0.2,0,0.4,0.1,0.5,0.2s0.4,0.2,0.5,0.4c0.1,0.2,0.3,0.4,0.4,0.6
		c0.1,0.3,0.1,0.5,0.1,0.9c0,0.3,0,0.7-0.1,0.9c-0.1,0.3-0.2,0.5-0.4,0.7c-0.2,0.2-0.4,0.4-0.6,0.5s-0.6,0.2-0.9,0.2
		c-0.1,0-0.1,0-0.2,0c-0.1,0-0.1,0-0.2,0c-0.1,0-0.1,0-0.2,0c-0.1,0-0.2,0-0.2,0h-1.3V23.3z M41.7,19h0.7c0.1,0,0.3,0,0.4-0.1
		c0.1-0.1,0.2-0.1,0.3-0.3c0.1-0.1,0.1-0.3,0.2-0.5c0-0.2,0.1-0.5,0.1-0.9c0-0.4,0-0.7-0.1-1c-0.1-0.2-0.2-0.4-0.3-0.5
		c-0.1-0.1-0.2-0.2-0.4-0.2c-0.1,0-0.3-0.1-0.4-0.1c-0.1,0-0.2,0-0.3,0s-0.2,0-0.2,0V19z M41.7,23.3c0.1,0,0.1,0,0.2,0
		c0.1,0,0.2,0,0.3,0c0.2,0,0.4,0,0.6-0.1c0.2-0.1,0.3-0.2,0.4-0.4c0.1-0.2,0.2-0.4,0.2-0.7c0-0.3,0.1-0.6,0.1-1.1
		c0-0.6-0.1-1.1-0.2-1.4c-0.2-0.4-0.4-0.5-0.7-0.5h-0.8V23.3z"/>
	<path class="st1" d="M45.4,23.3h0.8v-7.8h-0.8v-0.2h4.2v2h-0.1c-0.1-0.3-0.1-0.6-0.2-0.8c-0.1-0.2-0.2-0.4-0.3-0.6
		c-0.1-0.2-0.2-0.3-0.4-0.4c-0.1-0.1-0.3-0.1-0.5-0.1H47V19h0.5c0.2,0,0.3,0,0.4-0.1c0.1,0,0.2-0.1,0.3-0.3c0.1-0.1,0.1-0.3,0.2-0.5
		c0.1-0.2,0.1-0.5,0.2-0.8h0.1v3.6h-0.1c0-0.2-0.1-0.4-0.1-0.6c0-0.2-0.1-0.4-0.2-0.6c-0.1-0.2-0.2-0.3-0.3-0.4
		c-0.1-0.1-0.3-0.1-0.4-0.1H47v4.1h1.4c0.3,0,0.5-0.1,0.7-0.3s0.3-0.4,0.4-0.6c0.1-0.2,0.2-0.5,0.2-0.8c0.1-0.3,0.1-0.5,0.1-0.7h0.1
		v2.5h-4.5V23.3z"/>
	<path class="st1" d="M52.1,23.3h0.8v-7.8h-0.4c-0.1,0-0.2,0-0.3,0c-0.1,0-0.2,0.1-0.4,0.2c-0.1,0.1-0.2,0.3-0.4,0.6
		c-0.1,0.3-0.2,0.6-0.3,1.1H51v-2.1h4.5v2.1h-0.1c-0.1-0.5-0.2-0.8-0.3-1.1s-0.2-0.5-0.4-0.6c-0.1-0.1-0.2-0.2-0.4-0.2
		c-0.1,0-0.2,0-0.3,0h-0.4v7.8h0.8v0.2h-2.4V23.3z"/>
</g>
<polygon class="st1" points="40,12.4 40,12.8 58.6,12.8 58.6,25.4 1.4,25.4 1.4,12.8 20,12.8 20,12.4 1,12.4 1,25.7 59,25.7 
	59,12.4 "/>
</svg>
